<?xml version="1.0" encoding="UTF-8"?>
<svg version="1.0" viewBox="0 0 737.51 442.86" xmlns="http://www.w3.org/2000/svg">
 <g transform="translate(-24.163 -472.75)">
  <path d="m646.15 913.7c-27.402-2.507-34.62-4.3459-43.792-11.156l-8.6379-6.4138 1.232-13.659c0.67756-7.5123 1.3673-14.171 1.5328-14.797 0.91864-3.4752-5.6723-62.46-8.2669-73.984-1.6858-7.4875-3.0651-15.495-3.0651-17.795 0-14.483-24.23-50.073-38.524-56.587-16.766-7.6401-30.947-9.4479-36.801-4.6916-7.8293 6.3607-21.781 30.102-34.484 58.684-4.0222 9.0494-9.1314 18.153-11.354 20.23s-7.1876 6.7501-11.034 10.384c-13.708 12.952-18.188 14.24-49.723 14.302-27.233 0.05335-29.508-0.27892-39.595-5.7814-19.062-10.399-27.82-19.926-35.34-38.441-5.8379-14.374-6.7093-18.838-5.8903-30.171 1.0688-14.79-2.4694-28.574-9.2493-36.033-3.2269-3.5504-6.7952-4.6908-14.677-4.6908-10.408 0-10.417-0.00636-17.152-12.238-5.6358-10.236-8.5588-13.063-17.869-17.284-18.153-8.2288-36.238-34.61-31.114-45.386 2.1792-4.5829-1.7245-7.9867-15.879-13.846-9.3066-3.8522-11.716-6.1827-17.106-16.549-3.4509-6.6362-8.6726-14.674-11.604-17.862l-5.3296-5.7965-44.231-0.43578c-24.327-0.23967-51.454-0.90656-60.282-1.482-8.8285-0.57541-21.371-1.2261-27.873-1.446-9.0095-0.30474-13.467-1.7201-18.74-5.9504-6.7672-5.4289-6.923-5.9479-7.1081-23.675-0.17599-16.852 0.21278-18.537 5.5379-23.995 4.2178-4.3234 5.4362-7.3616 4.6231-11.529-1.3846-7.0963 0.71632-10.735 5.907-10.23 2.7365 0.26609 4.6915-1.7092 6.1268-6.1906 3.952-12.339 9.5924-16.453 22.554-16.453 11.145 0 12.157 0.49187 21.926 10.665l10.242 10.665 48.864 1.4079c103.91 2.9939 131.75 2.6661 138.09-1.6258 4.8064-3.2533 9.9507-3.8318 31.034-3.4898 13.9 0.22543 39.96 0.30142 57.911 0.16885 31.134-0.22991 32.639-0.44339 32.639-4.6286 0-3.7194 1.4268-4.3876 9.369-4.3876 8.2755 0 15.244 3.8284 15.244 8.3751 0 0.61564 5.545 0.88739 12.322 0.60388 20.19-0.84461 35.57 1.959 41.915 7.6406 5.5972 5.012 5.6305 5.204 2.044 11.788-2.9873 5.484-3.0975 6.6931-0.61035 6.6931 1.6695 0 4.0664 1.9744 5.3264 4.3876 2.8977 5.5499 9.6955 5.595 23.658 0.15695 10.09-3.9297 11.728-3.9997 23.031-0.98377 6.6925 1.7858 13.09 4.1902 14.217 5.3432 3.8067 3.8956-4.4938 9.2905-14.845 9.6488-7.6593 0.2651-11.032 1.6381-15.118 6.155-2.8926 3.1976-5.2593 7.2619-5.2593 9.0318s6.501 7.7436 14.447 13.275c7.9457 5.5313 18.299 14.943 23.008 20.915 7.9557 10.09 9.3933 10.951 20.332 12.171 27.562 3.0732 31.438 4.8286 38.465 17.418l6.4428 11.543 13.042 1.3973c7.1731 0.76851 13.923 1.9555 15 2.6378 2.6238 1.6621 2.498 9.1558-0.18207 10.854-3.8607 2.4458-2.2413 12.177 2.8467 17.107 2.7428 2.6572 14.877 17.665 26.965 33.351s23.172 29.507 24.632 30.713c1.4596 1.2066 4.3338 6.1426 6.3872 10.969s4.6344 10.256 5.7358 12.066c5.0423 8.2863 7.8246 16.523 5.9768 17.693-1.0956 0.69403 1.3421 8.6585 5.417 17.699 4.0749 9.0403 9.0306 22.792 11.013 30.559 1.982 7.7672 5.275 18.071 7.3178 22.897 2.0427 4.8263 4.3906 12.583 5.2176 17.236 0.82695 4.6535 2.5593 11.07 3.8496 14.26 1.2903 3.1893 2.1905 6.5391 2.0004 7.4441-0.19007 0.90494 0.37673 1.6459 1.2596 1.6465 0.88285 6.4e-4 1.5816 4.0271 1.5528 8.9477-0.15303 26.115-42.242 37.24-115.52 30.536zm86.869-7.909c1.5696-1.9386 3.8786-5.6406 5.1312-8.2267s4.661-5.0324 7.5744-5.4363c9.3483-1.2957 9.9368-4.7503 0.80918-4.7503h-8.5543l-2.506-13.711c-4.9378-27.016-14.905-60.405-30.53-102.27-5.5747-14.938-6.3074-18.715-3.9296-20.259 3.9518-2.5662 6.133-2.4389 6.133 0.35816 0 1.2778-0.96311 1.7131-2.1402 0.96742-1.1771-0.74572-2.1402-0.2671-2.1402 1.0636s1.475 2.1294 3.2778 1.7748c3.5844-0.70494 11.632 16.231 25.561 53.793 4.3913 11.842 8.415 21.089 8.9415 20.549 0.5266-0.53976-0.93657-6.2796-3.2515-12.755-2.3149-6.4756-7.0622-19.82-10.549-29.654-12.423-35.032-27.573-62.541-56.466-102.53-13.068-18.086-18.471-23.755-26.378-27.678-7.1271-3.5365-10.599-4.2621-12.258-2.562s1.266 6.309 10.326 16.272c20.963 23.052 39.923 54.982 56.989 95.971 18.326 44.017 31.25 86.74 34.911 115.41 1.183 9.2622 0.61596 11.887-4.0998 18.976-3.7157 5.5857-4.5469 8.2267-2.5889 8.2267 1.5861 0 4.168-1.5861 5.7376-3.5247zm-36.574-158.88c0-1.1687 1.4447-2.125 3.2104-2.125s3.2104 0.388 3.2104 0.86219c0 0.47421-1.4447 1.4304-3.2104 2.125-1.7657 0.69451-3.2104 0.30651-3.2104-0.86219zm-3.2104-6.5125c0.72751-1.2066 2.229-2.1938 3.3367-2.1938s2.0139 0.98721 2.0139 2.1938c0 1.2066-1.5015 2.1938-3.3367 2.1938s-2.7414-0.98721-2.0139-2.1938zm34.7 157.8c1.4277-2.9116 2.1809-8.2632 1.6737-11.893-0.50719-3.6294-1.4548-10.548-2.1059-15.374-3.9844-29.538-38.7-130.01-43.294-125.3-1.2313 1.2621 11.61 34.199 14.597 37.438 1.0567 1.1463 1.9212 3.8908 1.9212 6.099s2.4777 10.049 5.506 17.424c7.0649 17.205 18.005 59.775 18.023 70.128 0.01847 10.796-5.5387 17.255-16.06 18.667-11.7 1.5691-19.192-1.915-26.172-12.171-8.1524-11.978-19.346-17.074-30.188-13.745-5.3002 1.6277-9.0698 4.494-10.683 8.1231-3.945 8.8749-2.8842 11.571 1.5921 4.0463 7.8205-13.146 23.898-10.669 36.485 5.6202 9.8436 12.74 21.694 15.042 39.471 7.6701 3.5187-1.4593 3.914-0.89141 2.9559 4.2461-1.3539 7.26 2.5364 6.6525 6.2793-0.98043zm-51.821 2.3496c0.7502-1.2442-1.0479-2.1938-4.1542-2.1938-4.1147 0-5.4769-1.1313-5.4769-4.5484 0-3.151-1.1508-4.3213-3.7454-3.8091-5.481 1.082-4.57 6.7034 1.6052 9.9058 6.4926 3.3669 10.014 3.56 11.771 0.64557zm-38.879-6.3396c3.6845-3.7767 3.8857-4.6294 1.0925-4.6294-1.8832 0-4.6229 1.4808-6.0883 3.2907-3.0585 3.7774-17.47 4.4281-23.6 1.0655-3.5669-1.9567-3.9-3.9423-2.7602-16.453 0.7193-7.8956 0.44404-14.228-0.61846-14.228-1.0531 9e-5 -1.9147 7.6054-1.9147 16.901 0 16.127 0.24483 16.976 5.3506 18.541 9.1762 2.8135 23.634 0.5404 28.539-4.487zm117-15.598c0-1.2066-0.96311-2.1938-2.1402-2.1938-1.1771 0-2.1402 0.98721-2.1402 2.1938 0 1.2066 0.96311 2.1938 2.1402 2.1938 1.1771 0 2.1402-0.98721 2.1402-2.1938zm-53.506-4.3876c0-1.2066-0.96311-2.1938-2.1402-2.1938-1.1771 0-2.1402 0.9872-2.1402 2.1938s0.96311 2.1938 2.1402 2.1938c1.1771 0 2.1402-0.9872 2.1402-2.1938zm-29.963-19.744c0-1.2066-1.02-2.1938-2.2666-2.1938s-1.6713 0.98721-0.9438 2.1938c0.72751 1.2066 1.7475 2.1938 2.2666 2.1938s0.94381-0.98721 0.94381-2.1938zm25.148-7.8614c-2.0395-2.0906-6.1286 1.2957-4.6086 3.8165 0.90344 1.4984 2.1006 1.4605 3.6376-0.11502 1.2601-1.2916 1.697-2.9573 0.97094-3.7015zm-42.27-0.91378c0-1.2066-1.02-2.1938-2.2666-2.1938s-1.6713 0.98721-0.94381 2.1938c0.72751 1.2066 1.7475 2.1938 2.2666 2.1938s0.94381-0.9872 0.94381-2.1938zm-6.4207-4.3876c0-1.2066-0.96311-2.1938-2.1402-2.1938-1.1771 0-2.1402 0.98721-2.1402 2.1938 0 1.2066 0.96311 2.1938 2.1402 2.1938 1.1771 0 2.1402-0.98721 2.1402-2.1938zm19.262-1.2264c0-1.8811-0.96311-2.81-2.1402-2.0643-1.1771 0.74571-2.1402 2.2848-2.1402 3.4202s0.96311 2.0643 2.1402 2.0643c1.1771 0 2.1402-1.5391 2.1402-3.4202zm-7.4909-3.1612c0.72751-1.2066-0.17875-2.1938-2.0139-2.1938-1.8352 0-3.3367 0.9872-3.3367 2.1938s0.90626 2.1938 2.0139 2.1938c1.1077 0 2.6092-0.9872 3.3367-2.1938zm35.314-0.96742c0-0.53208-0.96311-1.5776-2.1402-2.3233-1.1771-0.74571-2.1402-0.31038-2.1402 0.96742s0.96311 2.3233 2.1402 2.3233c1.1771 0 2.1402-0.43534 2.1402-0.96742zm-42.805-3.4202c0-1.2066-0.90626-2.1938-2.0139-2.1938-1.1077 0-2.6092 0.98721-3.3367 2.1938-0.72751 1.2066 0.17875 2.1938 2.0139 2.1938 1.8352 0 3.3367-0.98721 3.3367-2.1938zm19.262 0c0-1.2066-0.96311-2.1938-2.1402-2.1938-1.1771 0-2.1402 0.98721-2.1402 2.1938 0 1.2066 0.96311 2.1938 2.1402 2.1938 1.1771 0 2.1402-0.98721 2.1402-2.1938zm-27.823-3.4735c0-1.9104-1.1437-3.0827-2.5415-2.6051-3.9685 1.3559-4.6267 6.0786-0.84717 6.0786 1.8638 0 3.3887-1.5631 3.3887-3.4735zm19.262-0.91408c0-1.2066-0.96311-2.1938-2.1402-2.1938-1.1771 0-2.1402 0.98721-2.1402 2.1938 0 1.2066 0.96311 2.1938 2.1402 2.1938 1.1771 0 2.1402-0.98721 2.1402-2.1938zm21.402 0c0-1.2066-0.96311-2.1938-2.1402-2.1938-1.1771 0-2.1402 0.98721-2.1402 2.1938 0 1.2066 0.96311 2.1938 2.1402 2.1938 1.1771 0 2.1402-0.98721 2.1402-2.1938zm-27.823-4.3876c0-1.2066-1.4447-2.1938-3.2104-2.1938s-3.2104 0.9872-3.2104 2.1938 1.4447 2.1938 3.2104 2.1938 3.2104-0.9872 3.2104-2.1938zm19.262 0c0-1.2066-0.96311-2.1938-2.1402-2.1938-1.1771 0-2.1402 0.9872-2.1402 2.1938s0.96311 2.1938 2.1402 2.1938c1.1771 0 2.1402-0.9872 2.1402-2.1938zm-29.006-4.575c-0.6891-1.1429-2.1652-1.5001-3.2802-0.79371-1.115 0.70633-1.4634 2.2194-0.77434 3.3622 0.6891 1.1429 2.1652 1.5001 3.2802 0.79371 1.115-0.70633 1.4634-2.2194 0.77434-3.3622zm43.578 2.2166c-0.4218-1.2971-1.6819-2.3583-2.8002-2.3583s-2.3783 1.0612-2.8001 2.3583c-0.42182 1.2971 0.83824 2.3583 2.8001 2.3583s3.222-1.0612 2.8002-2.3583zm-86.663-9.1591c-1.2744-11.253-4.9732-24.298-6.4579-22.777-1.6627 1.7043 3.8015 32.1 5.7706 32.1 0.95878 0 1.2681-4.1956 0.68734-9.3236zm63.53 7.1298c0-1.2066-0.96311-2.1938-2.1402-2.1938-1.1771 0-2.1402 0.98721-2.1402 2.1938 0 1.2066 0.96311 2.1938 2.1402 2.1938 1.1771 0 2.1402-0.98721 2.1402-2.1938zm-27.823-2.1938c0-1.2066-1.4447-2.1938-3.2104-2.1938s-3.2104 0.98721-3.2104 2.1938c0 1.2066 1.4447 2.1938 3.2104 2.1938s3.2104-0.98721 3.2104-2.1938zm40.665-1.0969c0-1.8099-0.96311-3.2907-2.1402-3.2907-1.1771 0-2.1402 1.4808-2.1402 3.2907s0.96311 3.2907 2.1402 3.2907c1.1771 0 2.1402-1.4808 2.1402-3.2907zm-20.332-1.0969c0.72751-1.2066-0.17875-2.1938-2.0139-2.1938-1.8352 0-3.3367 0.9872-3.3367 2.1938s0.90626 2.1938 2.0139 2.1938c1.1077 0 2.6092-0.9872 3.3367-2.1938zm-226.73-7.1192c5.9604-3.1365 14.298-9.6294 18.528-14.429 6.9965-7.938 23.071-38.744 23.071-44.214 0-2.87 8.7394-21.509 14.792-31.547 2.5355-4.2052 3.8562-8.0533 2.935-8.5515-0.92124-0.49819-10.064-1.1524-20.317-1.4537-18.368-0.53987-18.662-0.46599-20.007 5.0278-0.94344 3.853 0.02198 7.5727 3.1248 12.039 3.4624 4.9842 4.49 9.7561 4.49 20.851 0 28.04-11.707 47.018-36.384 58.983-16.247 7.8772-46.314 5.8808-57.166-3.7958-2.107-1.8788-7.6032-6.6075-12.214-10.508-16.42-13.891-21.594-40.112-12.206-61.857 5.9592-13.804 9.8083-18.12 17.754-19.909 3.4935-0.7865 5.9526-1.8393 5.4646-2.3394-1.4748-1.5117-46.504-3.5022-46.504-2.0556 0 0.73874 1.6854 3.9788 3.7454 7.2002 2.4785 3.8759 4.2322 12.569 5.1844 25.7 1.7547 24.196 3.9493 32.006 12.974 46.168 7.5333 11.822 29.371 28.561 39.606 30.358 3.2494 0.57047 14.094 0.81194 24.1 0.53658 14.763-0.40627 20.235-1.5757 29.029-6.2034zm31.318-57.738c0.14132-12.99-1.5656-19.532-7.2573-27.816-5.5493-8.0762-3.4912-10.435 9.1034-10.435 10.608 0 14.786 3.4694 5.7594 4.7835-4.5765 0.66623-4.7818 1.5177-4.1364 17.154 0.37356 9.0494-0.28138 18.921-1.4554 21.938-1.8302 4.7024-2.1174 3.9003-2.0137-5.6247zm-132.16-14.119c0.52962-5.4296 1.0119-12.093 1.0717-14.808 0.05982-2.7148 1.0534-4.936 2.2081-4.936 2.3159 0 0.59131 17.985-2.4191 25.229-1.2291 2.9572-1.5096 1.1691-0.86066-5.4845zm138.16-10.7c0-1.0588 1.3589-3.0812 3.0198-4.4941 3.3539-2.8532 6.7843 0.38885 4.471 4.2255-1.6299 2.7032-7.4909 2.9134-7.4909 0.26861zm-142.99-13.596c0.4218-1.2971 1.4652-2.2843 2.3186-2.1938 0.85342 0.09049 4.4978 0.16453 8.0987 0.16453 3.8197 0 5.996 0.91389 5.2243 2.1938-1.8079 2.9984-16.62 2.8426-15.642-0.16453zm322.77 99.853c0-1.8811-0.97882-2.8001-2.1752-2.0422-1.1963 0.75787-1.6211 2.297-0.94381 3.4202 1.8347 3.0429 3.119 2.4755 3.119-1.378zm21.402-0.96742c0-1.2066-0.96311-2.1938-2.1402-2.1938-1.1771 0-2.1402 0.98721-2.1402 2.1938 0 1.2066 0.96311 2.1938 2.1402 2.1938 1.1771 0 2.1402-0.98721 2.1402-2.1938zm-27.823-2.0643c0-2.5884-4.1742-5.3572-5.7073-3.7858-1.5331 1.5715 1.1682 5.8501 3.6934 5.8501 1.1077 0 2.0139-0.92894 2.0139-2.0643zm40.665-0.12948c0-1.2066-1.5015-2.1938-3.3367-2.1938s-2.7414 0.9872-2.0139 2.1938c0.72752 1.2066 2.229 2.1938 3.3367 2.1938s2.0139-0.9872 2.0139-2.1938zm-21.402-2.1938c0-1.2066-0.96311-2.1938-2.1402-2.1938-1.1771 0-2.1402 0.98721-2.1402 2.1938 0 1.2066 0.96311 2.1938 2.1402 2.1938 1.1771 0 2.1402-0.98721 2.1402-2.1938zm-243.53-4.3878c23.297-9.0329 35.929-28.53 35.929-55.453 0-9.765-5.092-23.524-8.7059-23.524-0.74926 0-4.6049 2.2398-8.568 4.9774-6.13 4.2344-8.0852 7.919-13.097 24.68-5.0903 17.025-7.1929 20.93-15.471 28.73-9.8557 9.2869-22.89 14.419-30.067 11.838-5.2174-1.876-1.2244-4.6916 7.5347-5.3132 8.29-0.58829 16.356-8.6567 22.647-22.654 3.9078-8.6949 9.3438-28.792 9.3438-34.544 0-0.254 1.6854-2.4323 3.7454-4.8407 5.0223-5.8717 11.967-9.4552 18.324-9.4552 6.2195 0 12.284-5.9601 7.5996-7.4685-1.604-0.51644-17.065-1.5162-34.358-2.2216-32.574-1.3288-39.187 0.16001-27.716 6.2399 9.831 5.211 19.965 19.87 21.143 30.585 1.2938 11.766-5.9049 29.9-14.975 37.723-9.2995 8.0208-9.8686 4.6965-0.93186-5.443 8.3445-9.4675 13.242-23.592 12.44-35.88-0.13946-2.1385-4.2287-8.3085-9.0871-13.711-7.4227-8.2542-10.106-9.8231-16.801-9.8231-8.4065 0-23.678 9.408-27.487 16.933-3.7948 7.4977-5.0172 25.07-2.494 35.851 3.1239 13.348 18.922 29.206 32.714 32.837 4.9443 1.302 9.9528 2.7297 11.13 3.1727 5.5756 2.0985 16.934 0.74758 27.208-3.2359zm-9.8858-67.145c-0.81175-3.7489-4.8005-10.537-8.8639-15.084-4.0634-4.5472-7.388-8.6371-7.388-9.0888 0-1.2552 12.599-0.94463 25.351 0.62499l11.439 1.408-7.1228 3.0699c-3.9176 1.6884-9.3058 2.5082-11.974 1.8218-5.9801-1.5385-6.4992 2.3913-0.5707 4.32 4.4755 1.456 5.3598 7.3791 2.2927 15.357-1.4898 3.875-1.8593 3.5914-3.1628-2.4286zm223.46 69.339c0-1.2066-0.96311-2.1938-2.1402-2.1938-1.1771 0-2.1402 0.98721-2.1402 2.1938 0 1.2066 0.96311 2.1938 2.1402 2.1938 1.1771 0 2.1402-0.98721 2.1402-2.1938zm21.402-2.1938c0-1.2066-0.96311-2.1938-2.1402-2.1938-1.1771 0-2.1402 0.9872-2.1402 2.1938s0.96311 2.1938 2.1402 2.1938c1.1771 0 2.1402-0.9872 2.1402-2.1938zm20.332 0c-0.72751-1.2066-2.229-2.1938-3.3367-2.1938s-2.0139 0.9872-2.0139 2.1938 1.5015 2.1938 3.3367 2.1938 2.7414-0.9872 2.0139-2.1938zm-28.893-3.2907c0-1.8099-0.90627-3.2907-2.0139-3.2907-2.6988 0-4.6317 3.4258-2.9218 5.1785 2.4103 2.4706 4.9357 1.5047 4.9357-1.8878zm40.665 1.0969c0-1.2066-0.96311-2.1938-2.1402-2.1938-1.1771 0-2.1402 0.9872-2.1402 2.1938s0.96311 2.1938 2.1402 2.1938c1.1771 0 2.1402-0.98721 2.1402-2.1938zm-21.402-2.1938c0-1.2066-0.96311-2.1938-2.1402-2.1938-1.1771 0-2.1402 0.98721-2.1402 2.1938 0 1.2066 0.96311 2.1938 2.1402 2.1938 1.1771 0 2.1402-0.98721 2.1402-2.1938zm-27.823-2.1938c0-1.2066-0.96311-2.1938-2.1402-2.1938-1.1771 0-2.1402 0.98721-2.1402 2.1938 0 1.2066 0.96311 2.1938 2.1402 2.1938 1.1771 0 2.1402-0.98721 2.1402-2.1938zm40.665-1.0969c0-1.8099-0.96311-3.2907-2.1402-3.2907-1.1771 0-2.1402 1.4808-2.1402 3.2907s0.96311 3.2907 2.1402 3.2907c1.1771 0 2.1402-1.4808 2.1402-3.2907zm-21.402-1.0969c0-1.2066-0.96311-2.1938-2.1402-2.1938-1.1771 0-2.1402 0.9872-2.1402 2.1938s0.96311 2.1938 2.1402 2.1938c1.1771 0 2.1402-0.9872 2.1402-2.1938zm-8.561-2.1938c0-1.2066-0.96311-2.1938-2.1402-2.1938-1.1771 0-2.1402 0.98721-2.1402 2.1938 0 1.2066 0.96311 2.1938 2.1402 2.1938 1.1771 0 2.1402-0.98721 2.1402-2.1938zm21.402-1.0969c0-1.8099-0.90626-3.2907-2.0139-3.2907-2.6988 0-4.6317 3.4258-2.9218 5.1785 2.4103 2.4706 4.9357 1.5047 4.9357-1.8878zm-28.893-3.2907c-0.72752-1.2066-2.229-2.1938-3.3367-2.1938s-2.0139 0.9872-2.0139 2.1938 1.5015 2.1938 3.3367 2.1938 2.7414-0.9872 2.0139-2.1938zm41.735 0c0-1.2066-1.5015-2.1938-3.3367-2.1938s-2.7414 0.9872-2.0139 2.1938 2.229 2.1938 3.3367 2.1938 2.0139-0.9872 2.0139-2.1938zm-50.296-2.1938c0.72751-1.2066 0.3028-2.1938-0.94381-2.1938s-2.2666 0.98721-2.2666 2.1938c0 1.2066 0.42471 2.1938 0.9438 2.1938 0.5191 0 1.539-0.98721 2.2666-2.1938zm26.753 0c0-1.2066-0.42471-2.1938-0.94381-2.1938-0.51909 0-1.539 0.98721-2.2666 2.1938-0.72751 1.2066-0.3028 2.1938 0.94381 2.1938 1.2466 0 2.2666-0.98721 2.2666-2.1938zm-35.091-5.9872c-2.1756-2.23-3.9707 1.1274-2.1857 4.0879 1.3484 2.2364 1.8526 2.2381 2.5775 0.00887 0.49568-1.5242 0.31935-3.3677-0.39183-4.0967zm28.67 3.7934c0-1.2066-0.96311-2.1938-2.1402-2.1938-1.1771 0-2.1402 0.98721-2.1402 2.1938 0 1.2066 0.96311 2.1938 2.1402 2.1938 1.1771 0 2.1402-0.98721 2.1402-2.1938zm19.262 0c0-1.2066-0.96311-2.1938-2.1402-2.1938-1.1771 0-2.1402 0.98721-2.1402 2.1938 0 1.2066 0.96311 2.1938 2.1402 2.1938 1.1771 0 2.1402-0.98721 2.1402-2.1938zm-27.823-3.2907c0-1.8099-0.90626-3.2907-2.0139-3.2907-2.6988 0-4.6317 3.4258-2.9218 5.1785 2.4103 2.4706 4.9357 1.5047 4.9357-1.8878zm19.262-0.73125c0-2.8565-2.5443-4.7562-4.6139-3.4451-2.2135 1.4022-0.30488 5.2733 2.6 5.2733 1.1077 0 2.0139-0.82267 2.0139-1.8282zm-27.823-2.5594c0-1.2066-0.96311-2.1938-2.1402-2.1938-1.1771 0-2.1402 0.98721-2.1402 2.1938 0 1.2066 0.96311 2.1938 2.1402 2.1938 1.1771 0 2.1402-0.98721 2.1402-2.1938zm-6.9561-5.6676c-2.0396-2.0906-6.1286 1.2956-4.6086 3.8165 0.90344 1.4984 2.1006 1.4605 3.6376-0.11502 1.2601-1.2916 1.697-2.9573 0.97095-3.7015zm26.218 4.7002c0-0.53209-0.96311-1.5776-2.1402-2.3233-1.1771-0.74572-2.1402-0.31038-2.1402 0.96741 0 1.2778 0.96311 2.3233 2.1402 2.3233 1.1771 0 2.1402-0.43533 2.1402-0.96741zm21.402-1.2264c0-1.2066-1.4447-2.1938-3.2104-2.1938s-3.2104 0.98721-3.2104 2.1938c0 1.2066 1.4447 2.1938 3.2104 2.1938s3.2104-0.9872 3.2104-2.1938zm-31.711-4.8629c-1.5358-1.5742-2.5326-1.7037-2.5326-0.32907 0 2.9282 2.5311 5.5226 3.9594 4.0585 0.60819-0.62338-0.03388-2.3016-1.4268-3.7294zm-23.935 0.47533c0-1.2066-0.96311-2.1938-2.1402-2.1938-1.1771 0-2.1402 0.98721-2.1402 2.1938 0 1.2066 0.96311 2.1938 2.1402 2.1938 1.1771 0 2.1402-0.98721 2.1402-2.1938zm44.945 0c0-1.2066-0.96311-2.1938-2.1402-2.1938-1.1771 0-2.1402 0.98721-2.1402 2.1938 0 1.2066 0.96311 2.1938 2.1402 2.1938 1.1771 0 2.1402-0.98721 2.1402-2.1938zm-8.561-4.3876c0-1.2066-0.96311-2.1938-2.1402-2.1938-1.1771 0-2.1402 0.9872-2.1402 2.1938s0.96311 2.1938 2.1402 2.1938c1.1771 0 2.1402-0.9872 2.1402-2.1938zm-25.683-2.1938c0-1.2066-0.96311-2.1938-2.1402-2.1938-1.1771 0-2.1402 0.98721-2.1402 2.1938 0 1.2066 0.96311 2.1938 2.1402 2.1938 1.1771 0 2.1402-0.98721 2.1402-2.1938zm17.282-0.6033c-0.26473-2.6231-3.2003-2.1151-4.12 0.71299-0.47085 1.4479 0.29963 2.2377 1.7122 1.755 1.4126-0.48263 2.4961-1.5932 2.4078-2.468zm21.242-1.5905c0-1.2066-0.96311-2.1938-2.1402-2.1938-1.1771 0-2.1402 0.98721-2.1402 2.1938 0 1.2066 0.96311 2.1938 2.1402 2.1938 1.1771 0 2.1402-0.98721 2.1402-2.1938zm-36.384-4.3876c0-1.2066-0.96311-2.1938-2.1402-2.1938-1.1771 0-2.1402 0.98721-2.1402 2.1938 0 1.2066 0.96311 2.1938 2.1402 2.1938 1.1771 0 2.1402-0.98721 2.1402-2.1938zm27.823 0c0-1.2066-0.96311-2.1938-2.1402-2.1938-1.1771 0-2.1402 0.98721-2.1402 2.1938 0 1.2066 0.96311 2.1938 2.1402 2.1938 1.1771 0 2.1402-0.98721 2.1402-2.1938zm-34.244-4.3876c0-1.2066-0.96311-2.1938-2.1402-2.1938-1.1771 0-2.1402 0.98721-2.1402 2.1938 0 1.2066 0.96311 2.1938 2.1402 2.1938 1.1771 0 2.1402-0.9872 2.1402-2.1938zm25.683 0c0-1.2066-0.42471-2.1938-0.9438-2.1938-0.5191 0-1.539 0.98721-2.2666 2.1938-0.72752 1.2066-0.30281 2.1938 0.9438 2.1938s2.2666-0.9872 2.2666-2.1938zm-34.066-3.1079c-0.09809-0.70383-0.55879-1.0329-1.0238-0.73126-0.46499 0.30165-2.9847-1.426-5.5994-3.8391-4.7539-4.3876-4.7539-4.3876-3.9408 0 0.44723 2.4132 1.9236 4.3876 3.2808 4.3876s3.19 0.74041 4.0728 1.6454c1.6446 1.6858 3.5295 0.8271 3.2104-1.4625zm26.575 0.91409c0.72751-1.2066 0.3028-2.1938-0.94381-2.1938s-2.2666 0.9872-2.2666 2.1938 0.42471 2.1938 0.9438 2.1938c0.5191 0 1.539-0.98721 2.2666-2.1938zm18.414-2.8436c-2.747-2.8157-5.5326-0.63949-3.499 2.7334 0.78778 1.3065 2.4128 1.7544 3.6112 0.99523 1.4618-0.92604 1.4249-2.1531-0.11222-3.7287zm-25.905-0.44709c0-1.8099-0.96311-3.2907-2.1402-3.2907-1.1771 0-2.1402 1.4808-2.1402 3.2907s0.96311 3.2907 2.1402 3.2907c1.1771 0 2.1402-1.4808 2.1402-3.2907zm-8.561-3.2907c0-1.2066-0.96311-2.1938-2.1402-2.1938-1.1771 0-2.1402 0.9872-2.1402 2.1938s0.96311 2.1938 2.1402 2.1938c1.1771 0 2.1402-0.9872 2.1402-2.1938zm27.244 0.86837c-0.71118-0.72898-2.5571-0.8069-4.1021-0.17318-1.7073 0.7003-1.2002 1.2201 1.2931 1.3254 2.2562 0.09526 3.5202-0.42322 2.8091-1.1522zm-33.664-3.0622c0-1.2066-1.02-2.1938-2.2666-2.1938s-1.6713 0.98721-0.9438 2.1938c0.72751 1.2066 1.7475 2.1938 2.2666 2.1938 0.51909 0 0.9438-0.98721 0.9438-2.1938zm25.683 0c0-1.2066-0.96311-2.1938-2.1402-2.1938-1.1771 0-2.1402 0.98721-2.1402 2.1938 0 1.2066 0.96311 2.1938 2.1402 2.1938 1.1771 0 2.1402-0.98721 2.1402-2.1938zm-6.4207-2.1938c0-1.2066-1.5015-2.1938-3.3367-2.1938s-2.7414 0.98721-2.0139 2.1938c0.72751 1.2066 2.229 2.1938 3.3367 2.1938s2.0139-0.98721 2.0139-2.1938zm-26.753-2.1938c0.72751-1.2066-0.2356-2.1938-2.1402-2.1938s-2.8678 0.9872-2.1402 2.1938 1.6906 2.1938 2.1402 2.1938c0.44963 0 1.4127-0.9872 2.1402-2.1938zm37.454-0.96742c0-0.53208-0.96311-1.5776-2.1402-2.3233-1.1771-0.74571-2.1402-0.31038-2.1402 0.96742s0.96311 2.3233 2.1402 2.3233c1.1771 0 2.1402-0.43534 2.1402-0.96742zm2.1402-7.8078c0-1.2066-0.42471-2.1938-0.94381-2.1938-0.51909 0-1.539 0.98721-2.2666 2.1938-0.72751 1.2066-0.3028 2.1938 0.94381 2.1938 1.2466 0 2.2666-0.98721 2.2666-2.1938zm-44.945-2.1938c0-1.2066-0.96311-2.1938-2.1402-2.1938-1.1771 0-2.1402 0.98721-2.1402 2.1938 0 1.2066 0.96311 2.1938 2.1402 2.1938 1.1771 0 2.1402-0.98721 2.1402-2.1938zm19.262 0c0-1.2066-1.02-2.1938-2.2666-2.1938s-1.6713 0.98721-0.94381 2.1938c0.72751 1.2066 1.7475 2.1938 2.2666 2.1938s0.94381-0.98721 0.94381-2.1938zm-6.4207-2.1938c0-1.2066-1.5015-2.1938-3.3367-2.1938s-2.7414 0.9872-2.0139 2.1938 2.229 2.1938 3.3367 2.1938 2.0139-0.9872 2.0139-2.1938zm25.683 1.2264c0-2.3155-4.1074-3.2883-5.329-1.2622-0.73936 1.2263 0.15718 2.2296 1.9924 2.2296 1.8352 0 3.3367-0.43533 3.3367-0.96742zm-9.6311-3.4202c0.72751-1.2066 0.3028-2.1938-0.9438-2.1938s-2.2666 0.98721-2.2666 2.1938c0 1.2066 0.42471 2.1938 0.94381 2.1938 0.51909 0 1.539-0.98721 2.2666-2.1938zm-27.6-5.9872c-2.1756-2.23-3.9707 1.1274-2.1857 4.0879 1.3484 2.2364 1.8526 2.2381 2.5775 0.00886 0.49568-1.5242 0.31935-3.3677-0.39183-4.0967zm39.372 1.5996c0-1.2066-0.96311-2.1938-2.1402-2.1938-1.1771 0-2.1402 0.9872-2.1402 2.1938s0.96311 2.1938 2.1402 2.1938c1.1771 0 2.1402-0.9872 2.1402-2.1938zm-47.085-2.1938c0-1.2066-1.5015-2.1938-3.3367-2.1938s-2.7414 0.98721-2.0139 2.1938c0.72751 1.2066 2.229 2.1938 3.3367 2.1938s2.0139-0.98721 2.0139-2.1938zm21.402 0c0-1.2066-0.96311-2.1938-2.1402-2.1938-1.1771 0-2.1402 0.98721-2.1402 2.1938 0 1.2066 0.96311 2.1938 2.1402 2.1938 1.1771 0 2.1402-0.98721 2.1402-2.1938zm19.262-2.1938c0-1.2066-0.42471-2.1938-0.9438-2.1938-0.5191 0-1.539 0.98721-2.2666 2.1938-0.72752 1.2066-0.30281 2.1938 0.9438 2.1938s2.2666-0.98721 2.2666-2.1938zm-27.823-2.1938c0-1.2066-0.96311-2.1938-2.1402-2.1938-1.1771 0-2.1402 0.9872-2.1402 2.1938s0.96311 2.1938 2.1402 2.1938c1.1771 0 2.1402-0.9872 2.1402-2.1938zm19.262-1.2264c0-1.8811-0.97882-2.8001-2.1752-2.0422-1.1963 0.75787-1.6211 2.297-0.9438 3.4202 1.8347 3.0429 3.119 2.4755 3.119-1.378zm-6.9561-4.4412c-2.0396-2.0906-6.1286 1.2957-4.6086 3.8165 0.90344 1.4984 2.1006 1.4605 3.6376-0.11502 1.2601-1.2916 1.697-2.9573 0.97095-3.7015zm-21.937 1.28c-0.72751-1.2066-2.229-2.1938-3.3367-2.1938s-2.0139 0.98721-2.0139 2.1938c0 1.2066 1.5015 2.1938 3.3367 2.1938s2.7414-0.98721 2.0139-2.1938zm-161.59-2.1938c0-1.3732 14.611-2.2882 39.059-2.4461 21.483-0.13875 35.689-0.93008 31.569-1.7585s-27.619-1.7351-52.221-2.0148c-24.602-0.27971-45.558-1.0333-46.571-1.6746-1.0123-0.64131-1.653-8.9996-1.4237-18.574 0.37884-15.82 0.80837-17.408 4.71-17.408 3.7961 0 3.9049-0.31746 0.93974-2.7422-1.8443-1.5082-4.4069-4.7166-5.6946-7.1298-2.0356-3.8148-2.3497-3.8864-2.4063-0.54845-0.0358 2.1115-1.269 3.9085-2.7404 3.9933-1.4714 0.08479-0.74908 1.0026 1.6052 2.0396 2.8534 1.2568-1.071 1.8219-11.771 1.6949-14.463-0.1716-14.993-0.32003-5.3506-1.4995 10.583-1.2945 10.621-1.3271 3.4779-2.946-7.625-1.7281-25.416-1.845-18.995-0.1248 5.2572 1.4082 4.6627 4.5829-1.0701 5.7147-2.6486 0.52289 4.0932 1.0852 14.982 1.2495 11.577 0.17469 19.797 1.2097 19.797 2.4925 0 1.2066-2.167 2.1917-4.8156 2.1892-4.5641-0.00437-4.7787 0.72505-4.1104 13.971 0.84895 16.824 1.8013 16.404-32.809 14.442-17.681-1.0025-20.612-1.537-11.771-2.1466 6.4742-0.44649 14.469-0.71046 17.766-0.58662 3.6588 0.13744 5.6674-0.76046 5.1545-2.3043-0.52931-1.5933-6.4932-2.5294-16.114-2.5294-15.86 0-20.823-3.2884-8.7749-5.8141 6.8021-1.426 21.053-13.747 18.695-16.163-0.6852-0.70236-15.728-1.238-33.428-1.1903-19.223 0.05177-32.467-0.78038-32.888-2.0665-0.38826-1.1843-13.166-2.6752-28.395-3.3131-15.229-0.63789-28.161-1.6434-28.738-2.2344-1.7559-1.7998 7.8341-9.7941 11.927-9.9425 3.2657-0.1184 3.1772-0.41191-0.5961-1.9773-2.437-1.011-5.9876-4.2734-7.8902-7.2497-3.0849-4.826-3.1134-5.9175-0.26319-10.089 3.3537-4.9079 14.42-6.5375 16.865-2.4833 0.72751 1.2066 2.7106 2.1938 4.4068 2.1938 4.3288 0 3.8356-3.6172-1.1964-8.7752-5.8641-6.0108-17.492-5.7512-24.566 0.54845-6.9132 6.1571-8.994 18.095-5.4289 31.147 3.2067 11.74 7.0858 15.612 24.325 24.284 8.9633 4.5088 14.81 9.2311 18.334 14.808 5.1486 8.1478 5.249 8.1892 20.332 8.3665 8.337 0.09802 18.048 0.4444 21.579 0.76974 3.5314 0.32532 29.054 1.4497 56.716 2.4987 28.55 1.0826 46.132 2.4683 40.665 3.205l-9.6311 1.2979 8.561 1.1409c14.936 1.9905 18.192 1.9341 18.192-0.31529zm-127.47-17.761c-0.79733-1.3224-0.08801-3.8 1.5762-5.5059 2.5583-2.6223 3.6403-2.6412 7.001-0.12228 2.1863 1.6386 3.2895 4.1163 2.4516 5.5059-1.9339 3.2074-9.1206 3.2871-11.029 0.12228zm24.74-4.1771c0-1.2066 0.96311-2.1938 2.1402-2.1938 1.1771 0 2.1402 0.98721 2.1402 2.1938 0 1.2066-0.96311 2.1938-2.1402 2.1938-1.1771 0-2.1402-0.9872-2.1402-2.1938zm-43.444-5.7743c-2.7278-2.796-1.5633-4.5992 2.8071-4.3467 2.3693 0.13689 4.3464 1.2361 4.3935 2.4427 0.10402 2.6642-5.1131 4.0437-7.2006 1.904zm-48.586-32.617c1.4654-1.8099 3.6275-3.2907 4.8046-3.2907 1.1939 0 0.96212 1.4551-0.52413 3.2907-1.4654 1.8099-3.6275 3.2907-4.8046 3.2907-1.1939 0-0.96213-1.455 0.52412-3.2907zm369.85 60.165c-0.4218-1.2971-1.6819-2.3583-2.8002-2.3583s-2.3783 1.0612-2.8001 2.3583c-0.42182 1.2971 0.83824 2.3583 2.8001 2.3583s3.222-1.0612 2.8002-2.3583zm-215.22-1.4418c-5.0028-0.46185-13.189-0.46185-18.192 0-5.0028 0.46189-0.9096 0.83979 9.096 0.83979 10.006 0 14.099-0.3779 9.096-0.83979zm235.67-1.6718c-0.67497-1.8029-2.1051-2.7219-3.1781-2.0422-2.2442 1.4217-0.44265 5.3203 2.4586 5.3203 1.0707 0 1.3945-1.4752 0.71955-3.2781zm-29.672-1.1095c-0.72751-1.2066-2.229-2.1938-3.3367-2.1938s-2.0139 0.98721-2.0139 2.1938c0 1.2066 1.5015 2.1938 3.3367 2.1938s2.7414-0.98721 2.0139-2.1938zm48.548-2.6691c-1.5358-1.5742-2.5326-1.7037-2.5326-0.32907 0 2.9282 2.5311 5.5226 3.9595 4.0585 0.60819-0.62339-0.03388-2.3016-1.4268-3.7294zm-85.959-0.64427c3.438-1.8224 7.2426-5.2127 8.4547-7.5341 3.5858-6.8678 2.5228-7.7105-2.1103-1.6731-9.8175 12.793-26.463 12.307-37.464-1.0951-6.3834-7.7761-6.6996-11.792-1.1675-14.827 9.9816-5.4757 23.154 0.32451 17.263 7.6011-2.148 2.653-2.0951 3.2965 0.27301 3.3206 1.6155 0.01647 5.0226 0.60331 7.5712 1.304 6.5479 1.8004 12.767-7.8136 9.3225-14.411-2.9604-5.67-6.4655-3.8623-6.4655 3.3345 0 7.365-2.5893 6.6302-6.4207-1.8223-2.8224-6.2265-4.1803-7.0521-11.236-6.8321-4.4142 0.13763-8.0259-0.54681-8.0259-1.5209 0-3.9218 10.036-8.6014 18.447-8.6014 7.5465 0 9.9643 1.2037 15.576 7.7546 3.6533 4.265 6.6424 10.01 6.6424 12.768 0 4.58 0.85766 4.1944 9.9282-4.4639 5.4605-5.2123 11.48-9.4921 13.377-9.5105 4.4562-0.04341 10.132-3.7188 8.4326-5.4607-0.72184-0.7399-7.7732 1.6575-15.67 5.3275-10.013 4.6538-13.994 5.7023-13.157 3.4655 1.6361-4.3702-11.242-14.149-20.707-15.724-16.601-2.7614-33.885 15.72-30.309 32.409 2.1102 9.8478 5.5847 15.117 9.9683 15.117 2.0016 0 4.2346 0.98721 4.9621 2.1938 1.9916 3.3032 15.432 2.6348 22.515-1.1196zm59.884 2.346c0-2.3155-4.1074-3.2883-5.329-1.2622-0.73937 1.2263 0.15718 2.2296 1.9924 2.2296 1.8352 0 3.3367-0.43534 3.3367-0.96742zm-9.6311-3.4202c0.72751-1.2066-0.17876-2.1938-2.0139-2.1938s-3.3367 0.9872-3.3367 2.1938 0.90626 2.1938 2.0139 2.1938 2.6092-0.9872 3.3367-2.1938zm28.533-9.2938c-6.9198-9.961-25.229-28.828-26.606-27.416-0.62973 0.6455 3.1047 5.4674 8.2988 10.715 5.1941 5.2479 11.585 12.75 14.201 16.671 2.6167 3.9214 5.7208 7.1298 6.8979 7.1298s-0.07928-3.195-2.792-7.1001zm-44.585 2.7125c0-1.2066-1.4447-2.1938-3.2104-2.1938s-3.2104 0.9872-3.2104 2.1938 1.4447 2.1938 3.2104 2.1938 3.2104-0.9872 3.2104-2.1938zm-214.02-4.3876c5.0531-1.6588 5.0866-1.7686 0.60222-1.9751-3.2989-0.15192-4.3723-1.2232-3.5164-3.5094 0.67758-1.8099 0.3584-3.2907-0.70924-3.2907-2.8608 0-7.0778 4.8362-7.0778 8.117 0 3.1446 2.6333 3.3066 10.701 0.65813zm80.863-1.8548c0.61335-1.888-0.41574-2.6786-2.8557-2.1938-2.098 0.41686-4.246 2.0862-4.7734 3.7097-0.61335 1.888 0.41574 2.6786 2.8557 2.1938 2.098-0.41687 4.246-2.0863 4.7734-3.7097zm0.46593-15.695c-7.922-2.6005-21.9-2.6005-20.332 0 0.72752 1.2066 6.8038 2.0954 13.503 1.9751 9.3271-0.16746 10.927-0.6301 6.8295-1.9751zm147.68 0c0-1.2066-1.4447-2.1938-3.2104-2.1938s-3.2104 0.9872-3.2104 2.1938 1.4447 2.1938 3.2104 2.1938 3.2104-0.9872 3.2104-2.1938zm-65.037-23.418c8.1837-1.1251 18.307 2.0494 26.827 8.4124 2.9321 2.1898 4.6596 1.4696 10.27-4.2817l6.7455-6.9143-7.5686-12.128c-4.1627-6.6702-8.0374-12.128-8.6102-12.128-2.385 0-52.247-13.474-61.614-16.65-5.5914-1.8957-10.166-4.3799-10.166-5.5206 0-1.1406 2.6486-0.69559 5.8857 0.9889 3.2371 1.6845 18.795 6.2415 34.573 10.127 23.364 5.7531 29.671 6.6049 33.985 4.5898 2.9139-1.3608 4.7687-3.0168 4.1218-3.6799-0.64691-0.66308-8.717-2.1472-17.934-3.2981-28.774-3.593-52.307-10.217-62.773-17.669-21.664-15.426-27.631-23.733-35.17-48.961l-3.2779-10.969 0.96043 11.77c1.578 19.338 12.61 37.421 30.365 49.771 9.323 6.485 7.8065 6.9359-3.4791 1.0344-14.005-7.3237-30.008-30.935-30.096-44.406-0.01802-2.7536-1.0532-6.4873-2.3004-8.2972-1.6796-2.4374-1.9214-1.0151-0.93247 5.4845 4.0564 26.661 13.529 40.287 36.048 51.857 16.064 8.2532 15.453 7.7 12.516 11.327-1.8874 2.3311-0.81426 3.7346 5.0456 6.5989 8.5434 4.176 9.3218 6.9116 2.9599 10.402-3.9535 2.1688-4.3252 1.9495-3.1466-1.8568 0.84452-2.7274 0.20891-4.7596-1.7268-5.521-1.8562-0.73009-3.4891 0.46423-4.1439 3.0309-0.76826 3.0113-2.9582 4.2358-7.5754 4.2358-3.5721 0-7.09 0.9872-7.8175 2.1938-0.78804 1.307 1.7843 2.1938 6.3634 2.1938 6.0052 0 8.0838 1.0795 9.5045 4.936 2.2882 6.2113-1.0274 13.117-5.8461 12.176-1.9806-0.38679-3.8996-2.8426-4.2646-5.4575-1.0458-7.4929-5.3917-10.037-11.93-6.9835-4.7014 2.1957-6.2578 1.9794-9.8707-1.3721-4.7637-4.4189-5.5332-9.9213-1.9074-13.638 3.7828-3.8775 0.71119-6.4657-14.162-11.933-7.6463-2.8109-13.902-5.8017-13.902-6.6462 0-3.698 4.3766-3.5293 14.914 0.57477 6.2142 2.4203 11.663 4.027 12.108 3.5705 0.44538-0.45651-4.5138-3.5909-11.02-6.9652-11.251-5.835-12.029-5.9504-15.9-2.3595-2.2387 2.0767-4.7395 7.8357-5.5574 12.798-0.81789 4.9622-3.3189 13.403-5.5579 18.757-3.7515 8.9708-3.8052 10.15-0.68535 15.031 1.862 2.9129 5.0152 5.1301 7.0072 4.9271 7.073-0.7207 8.9723 0.18722 8.9723 4.2891 0 2.2841-1.6057 4.7845-3.5683 5.5564-2.7937 1.0989-3.0062 1.9832-0.97901 4.0739 1.6585 1.7104 16.212 3.4613 40.487 4.8708l37.898 2.2005 8.725-9.4881c6.6202-7.1993 10.769-9.7691 17.198-10.653zm-49.466 5.829c-4.0294-1.585-4.0524-1.779-0.3912-3.3075 2.1391-0.893 4.8716-0.61678 6.0722 0.61383 3.008 3.0833-0.48273 4.7385-5.681 2.6936zm-43.34-1.4139c-1.4714-0.60858-2.6753-2.0452-2.6753-3.1925 0-2.9493 11.346-1.0486 12.361 2.0706 0.83715 2.5743-4.6401 3.2088-9.6856 1.1219zm30.657-8.786c-1.6121-4.3062 1.6631-8.45 5.0053-6.3327 3.373 2.1368 2.8584 9.9902-0.65466 9.9902-1.6398 0-3.5976-1.6459-4.3506-3.6575zm-37.613-0.15492c-12.943-1.1451-15.24-4.1617-4.576-6.0084 10.219-1.7697 17.417 0.08352 17.417 4.4842 0 1.7286-0.72233 2.9704-1.6052 2.7596s-5.9392-0.76673-11.236-1.2354zm70.628-3.7066c0-3.9973 10.113-12.225 15.026-12.225 2.061 0 6.1661 1.2863 9.1225 2.8585l5.3753 2.8585-10.25 4.8198c-11.792 5.545-19.274 6.2004-19.274 1.6883zm-204.93 21.423c-1.4714-0.60858-3.8792-0.60858-5.3506 0s-0.26753 1.1065 2.6753 1.1065c2.9428 0 4.1467-0.49795 2.6753-1.1065zm311.21-19.645l10.361-1.6824-8.4954-1.5056c-10.213-1.8099-20.878 1.6504-34.333 11.14-14.729 10.388-11.429 11.519 6.2496 2.1418 8.7214-4.6261 20.52-9.1681 26.218-10.093zm-266.8 14.586c0-1.1681-2.6486-3.5966-5.8857-5.3966-5.4804-3.0475-5.5587-3.279-1.1373-3.3608 3.1234-0.05779 4.363-1.1171 3.6224-3.0954-1.574-4.2044 1.9264-4.965 22.126-4.808 12.768 0.0993 17.656-0.6218 17.657-2.605 0.00111-1.9255-4.3012-2.735-14.445-2.7181-19.869 0.0332-30.498 2.0726-30.498 5.8512 0 2.5166-4.5778 3.0432-24.078 2.7693-13.243-0.18601-25.282-1.3408-26.753-2.5662-1.4714-1.2254-2.6753-4.5169-2.6753-7.3144s-1.1134-5.7917-2.4743-6.6539c-2.7225-1.7247-1.6516 6.6779 2.1562 16.919 2.073 5.575 2.7612 5.7669 24.233 6.7573 14.747 0.68021 24.236 2.2089 28.521 4.5947 7.5111 4.1825 9.6311 4.5407 9.6311 1.6273zm73.795-37.752c7.7577-33.73-1.5291-80.782-15.944-80.782-3.1274 0-4.3833 2.8126-6.3038 14.117-4.4175 26.002-2.3676 89.675 3.0663 95.245 1.1391 1.1676 7.2697-6.2428 7.3856-8.9273 0.03743-0.86707-1.2852-1.0442-2.9391-0.39368-2.0222 0.79541-3.4659-0.95827-4.4079-5.3541-2.2119-10.323-1.5955-55.609 0.8558-62.877 1.7462-5.1773 1.9634-3.0036 1.0177 10.189-0.76159 10.625-0.38163 17.29 1.0368 18.189 1.2756 0.80806 2.7841-1.216 3.5061-4.7043 0.69693-3.3675 1.7321-8.4478 2.3003-11.29 0.56823-2.8419 0.39845-9.5055-0.3773-14.808-1.0523-7.193-2.367-9.6411-5.1776-9.6411-3.0969 0-3.5199-1.2393-2.3773-6.9658 2.0718-10.384 5.4856-9.7902 11.17 1.9413 4.5439 9.3781 5.0918 13.46 5.0918 37.931 0 28.859-3.3381 44.899-11.912 57.242-2.2072 3.1772-3.4184 6.3863-2.6916 7.1312 2.2759 2.3328 13.362-21.725 16.701-36.241zm-159.4 31.101c0-1.2066-2.8893-2.1938-6.4207-2.1938s-6.4207 0.9872-6.4207 2.1938 2.8893 2.1938 6.4207 2.1938 6.4207-0.9872 6.4207-2.1938zm19.262-4.3876c0-1.2066-1.6854-2.2046-3.7454-2.2179-2.06-0.01327-7.3571-0.63605-11.771-1.3839-5.1238-0.86811-8.0259-0.50622-8.0259 1.0008 0 1.2984 4.5748 2.7304 10.166 3.1823s10.888 0.99963 11.771 1.2171c0.88286 0.21749 1.6052-0.59178 1.6052-1.7984zm108.81-16.488c-1.2077-9.6339-1.7151-32.078-1.1274-49.875 0.61624-18.663 0.24829-32.358-0.86941-32.358-1.9721 0-2.9546 9.3877-2.1237 20.293 0.2528 3.3181-0.56507 6.0329-1.8175 6.0329s-2.2772-2.9616-2.2772-6.5814c0-4.7789-1.0258-6.6005-3.7454-6.6512-3.5494-0.06612-3.5474-0.22381 0.03717-3.012 6.5624-5.1044 2.354-10.046-8.8271-10.364-18.755-0.5343-31.347 0.75796-37.119 3.8094-3.746 1.9802-12.926 3.0551-26.092 3.0551-11.233 0-20.904 0.9806-21.635 2.1938-0.86248 1.4304 11.639 2.1938 35.926 2.1938 34.509 0 37.533-0.32218 41.116-4.3798 4.5077-5.1056 9.5554-2.5043 9.0294 4.6532-0.2554 3.4754-1.654 4.2506-6.8429 3.7924-3.587-0.31677-7.7736 0.21709-9.3037 1.1864-1.53 0.96928-11.147 1.4501-21.372 1.0685-10.224-0.38158-25.952-0.47901-34.951-0.2165l-16.361 0.4773 0.3092 9.3236 0.30918 9.3236 20.332 1.574c26.267 2.0334 29.2 2.8697 33.465 9.5424 4.684 7.3276 1.0287 11.68-4.5258 5.3888-2.1557-2.4417-5.4557-4.3769-7.3333-4.3004-2.1606 0.08799-1.4496 1.0947 1.9369 2.7422 4.5444 2.2109 1.7577 2.6963-18.494 3.2212l-23.845 0.61808-1.4635 10.004c-0.80493 5.502-0.90971 10.571-0.23284 11.265s1.2307 0.10971 1.2307-1.298c0-1.8579 10.858-2.5594 39.613-2.5594 38.77 0 39.557 0.09124 37 4.2878-3.3211 5.4509-1.5483 7.2339 6.1259 6.1614l6.0813-0.84995-5.3506-2.4668c-2.9428-1.3567-4.1769-2.5293-2.7425-2.6058s2.0538-1.6199 1.3762-3.4298c-0.67758-1.8099-0.16579-3.2907 1.1373-3.2907 1.3031 0 2.3692 0.89326 2.3692 1.985 0 1.0918 3.8524 1.4554 8.561 0.80804 8.271-1.1371 8.5614-0.96282 8.5729 5.1448 0.01273 6.749 4.0649 23.715 5.3496 22.398 0.42298-0.43356-0.21909-8.6706-1.4268-18.305zm-104.53-16.803c0-0.99552 9.3903-1.8235 20.867-1.84 11.477-0.01645 23.275-0.58333 26.218-1.2597 5.238-1.2039 5.2606-1.1546 1.0701 2.3413-3.4351 2.8658-8.6131 3.4721-26.218 3.0697-12.066-0.27572-21.938-1.3158-21.938-2.3113zm54.028-25.205c-6.2844-2.597 0.77697-5.1239 14.319-5.1239 16.716 0 27.964 1.8752 27.964 4.6618 0 1.9986-37.571 2.4092-42.283 0.4621zm-92.836 50.818c-4.8974-8.5081-8.2774-9.9158-8.2774-3.4474 0 4.9322 5.4064 11.126 9.7118 11.126 2.2804 0 1.9416-1.8131-1.4344-7.6783zm334.4-1.7276c-1.7479-1.7916-2.381-1.5461-2.381 0.92321 0 4.361 2.878 7.311 3.9416 4.0402 0.45122-1.3876-0.25103-3.6211-1.5606-4.9634zm-325.56 1.0695c0-4.5739-3.9378-9.2139-7.8194-9.2139-1.9357 0-1.6675 1.8288 0.96311 6.5675 4.1247 7.43 6.8562 8.4843 6.8562 2.6464zm342.44 0.70074c0-0.57986-3.4005-6.5031-7.5566-13.163-7.8406-12.563-11.961-14.512-19.204-9.0837-3.8469 2.8833-3.8637 3.2936-0.35971 8.7752 3.703 5.7929 5.9773 6.9465 8.5322 4.3278 0.76334-0.78244-0.64712-3.2318-3.1344-5.4429-4.0354-3.5874-4.1378-4.1715-0.95149-5.4248 4.44-1.7464 11.039 4.1277 15.526 13.82 2.8235 6.0989 7.1471 9.8443 7.1471 6.1913zm-318.9-6.3867c0-1.6794-4.3595-8.0235-9.6877-14.098-10.239-11.674-17.796-14.95-28.779-12.478-7.6285 1.7174-19.32 12.352-19.32 17.574 0 2.9406 1.6011 2.2937 7.5301-3.0423 8.3454-7.5106 15.678-10.146 22.993-8.2646 4.942 1.2714 22.983 18.156 22.983 21.51 0 1.0186 0.96311 1.852 2.1402 1.852 1.1771 0 2.1402-1.374 2.1402-3.0534zm42.805 0.85964c0-1.2375-6.064-2.1938-13.912-2.1938s-13.912 0.95628-13.912 2.1938c0 1.2375 6.064 2.1938 13.912 2.1938s13.912-0.95628 13.912-2.1938zm147.52-3.486c-1.3784-1.7024-3.3514-3.0954-4.3844-3.0954-2.896 0-2.2218 6.0894 0.79712 7.1994 4.2863 1.576 6.3109-0.74021 3.5873-4.104zm5.2935-3.9761c-0.63304-1.691-3.0106-3.573-5.2834-4.1822-5.0104-1.343-5.145-0.67597-0.7692 3.8093 4.1729 4.2773 7.5932 4.488 6.0526 0.37288zm-257.68-3.7167c0-1.322 2.0446-5.3469 4.5437-8.9442 5.5089-7.9301 3.7678-10.384-9.1871-12.951-9.32-1.8462-27.46-2.6833-27.46-1.2672 0 4.6301 7.66 14.44 12.184 15.604 3.1184 0.80224 8.0428 3.3719 10.943 5.7102 5.9288 4.7802 8.9763 5.4077 8.9763 1.848zm58.003-24.577c-3.7262-3.8195-4.8087-0.42354-2.0349 6.3839 2.5299 6.2087 2.5998 6.232 3.4515 1.1481 0.47809-2.854-0.15937-6.2434-1.4166-7.532zm257.41 2.3006c-5.2592-9.0482-20.26-24.803-28.1-29.513-5.0352-3.0247-10.584-7.59-12.33-10.145-2.3819-3.4856-3.1746-3.787-3.1746-1.207 0 4.1109 4.9837 8.8694 14.42 13.769 3.811 1.9786 11.516 9.4936 17.122 16.7s10.972 13.111 11.924 13.121c0.95233 0.00989 1.0142-1.216 0.13758-2.7243zm-234.09-2.4932c0-0.46636-2.8893-1.2826-6.4207-1.8138-3.5314-0.53127-6.4207-0.14971-6.4207 0.8479 0 0.99763 2.8893 1.8138 6.4207 1.8138s6.4207-0.38155 6.4207-0.8479zm-27.098-9.7087c-0.98731-3.8699-4.331-4.2322-49.583-5.3726-26.688-0.67255-48.902-0.8427-49.364-0.37807-0.46204 0.46464 0.33203 2.2924 1.7646 4.0617 3.3534 4.1418 7.9437 4.5637 57.219 5.2595 39.328 0.55538 40.978 0.40798 39.963-3.5705zm-8.2162-9.1536c-4.7085-0.92352-41.788-2.3041-82.399-3.068-84.388-1.5873-140.61-3.2944-153.03-4.6466-5.7633-0.62754-7.1622-0.34702-4.2805 0.85843 4.4434 1.8587 44.7 3.6087 138.05 6.001 30.017 0.76926 54.978 1.7623 55.468 2.2068 0.49045 0.44451 13.011 0.70002 27.823 0.56782 19.044-0.16995 24.424-0.73211 18.37-1.9195zm5.0585-5.4522c-0.55304-0.56688-42.85-2.0255-93.992-3.2414-51.143-1.2159-107.92-2.6483-126.16-3.1831-29.302-0.85891-30.551-0.76412-10.701 0.81226 12.36 0.98156 56.181 2.5182 97.381 3.4148 41.2 0.89661 75.31 1.9897 75.8 2.4292 1.3348 1.1959 58.84 0.96483 57.673-0.23171zm177.93-6.4632c0-3.5727-2.8224-7.5914-8.6597-12.33-4.7628-3.8666-9.2143-6.4618-9.8921-5.767-0.97854 1.003 15.97 22.921 18.017 23.299 0.29428 0.05434 0.53506-2.2863 0.53506-5.2014zm-165.73-15.523c5.3645-11.588 3.2228-14.285-11.304-14.235-6.8055 0.02338-66.579-1.1298-132.83-2.5625-74.473-1.6106-121.22-1.8242-122.45-0.55976-1.0974 1.1249-2.2706 5.4864-2.607 9.6924l-0.61164 7.6471 41.735 1.4114c22.954 0.7763 77.326 2.0475 120.83 2.8249 43.5 0.77741 79.537 1.8699 80.081 2.4277 0.5442 0.55782 6.0809 1.0142 12.304 1.0142 10.822 0 11.469-0.33352 14.861-7.6605zm221.28-6.4794c1.5187-1.8758 2.128-3.4105 1.3539-3.4105-2.653 0-11.958 7.0847-11.958 9.1047 0 2.5733 6.9181-1.1415 10.604-5.6942zm-160.05-0.72156c2.0709-2.1227-1.9369-2.6889-19.032-2.6889-22.302 0-28.426 1.0494-28.426 4.8711 0 3.2383 44.151 1.2081 47.458-2.1822zm95.938 1.9334c0-1.0775-1.4447-2.5273-3.2104-3.2218-3.2623-1.2832-4.3832 1.0537-1.7835 3.7184 2.0454 2.0966 4.9939 1.8034 4.9939-0.49654zm60.725-8.8702c11.742-4.4424 13.187-4.5402 21.938-1.4839 5.1522 1.7994 9.3676 2.441 9.3676 1.4257 0-2.6328-12.283-6.6715-20.117-6.6147-3.65 0.0265-10.835 2.0009-15.966 4.3876-11.872 5.5217-17.58 5.4737-24.626-0.2074-3.1016-2.5008-5.6392-3.5596-5.6392-2.353s2.6343 4.3178 5.8541 6.9138c6.6161 5.3345 10.315 5.0724 29.188-2.0681zm-73.567 2.0541c0-1.2066-1.5015-2.1938-3.3367-2.1938s-2.7414 0.98721-2.0139 2.1938c0.72751 1.2066 2.229 2.1938 3.3367 2.1938s2.0139-0.98721 2.0139-2.1938zm-69.558-5.5026c17.657-1.7703 35.704-3.2309 40.105-3.2457 4.4441-0.01492 9.9154-1.7066 12.306-3.8051 4.4715-3.9244 5.9025-11.578 2.1647-11.578-1.1771 0-2.1402 1.614-2.1402 3.5866 0 2.6139-1.203 2.0189-4.4358-2.1938-2.4397-3.1792-5.4783-5.7803-6.7524-5.7803s-0.60586 1.9376 1.485 4.3059c3.7726 4.273 3.2429 11.051-0.86363 11.051-1.1771 0-1.5429-1.5957-0.81276-3.5459 1.1404-3.0461 0.65811-3.1787-3.4211-0.94099-3.9115 2.1457-5.7137 1.9007-10.224-1.3901-20.057-14.634-23.482-14.934-35.959-3.1447-4.9646 4.6907-11.333 9.729-14.151 11.196-2.8834 1.5011-1.4134-0.54964 3.3617-4.6894 4.6673-4.0464 10.928-10.177 13.912-13.623 5.2116-6.0188 6.0035-6.2192 20.084-5.0842 8.0624 0.64991 15.205 1.7419 15.873 2.4267 0.66806 0.68477 0.09102 1.245-1.2823 1.245-1.3733 0-2.497 1.0596-2.497 2.3546 0 1.2951 1.6854 1.9997 3.7454 1.5658 2.2885-0.48198 3.4748-2.3676 3.0496-4.8474-0.56256-3.2811 0.25741-3.7969 4.2805-2.6927 2.737 0.75124 9.4307 1.3794 14.875 1.3958 9.07 0.02747 9.9995 0.53498 11.103 6.0629 0.66262 3.3181 2.6802 8.0074 4.4836 10.421 3.0304 4.0551 3.0847 3.8438 0.7166-2.7889-2.0035-5.6114-1.9894-8.1166 0.06442-11.488 1.4447-2.3711 2.6267-4.8182 2.6267-5.4378s-16.857-1.1267-37.46-1.1267h-37.46l-7.9597 9.0308c-4.3778 4.967-13.043 11.972-19.257 15.566-20.493 11.855-19.167 12.169 30.438 7.1951zm-75.979-0.83594c0-2.0469-44.512-3.6766-160.52-5.8768-38.257-0.72557-70.04-1.3525-70.628-1.3931-9.1809-0.63403-32.101 0.85931-32.093 2.091 0.00573 0.90494 23.361 1.9566 51.901 2.337 45.157 0.60189 171.73 3.391 201.17 4.4331 5.5914 0.19786 10.166-0.51817 10.166-1.5912zm147.15-0.79128c-1.0422-3.2485-18.739-5.0734-18.739-1.9323 0 1.1875-1.6854 2.6106-3.7454 3.1623-2.06 0.55181 2.3543 1.1178 9.8094 1.2578 9.9699 0.18718 13.322-0.47079 12.675-2.4878zm19.785 0.54845c0-1.2066-3.3709-2.1938-7.4909-2.1938s-7.4908 0.98721-7.4908 2.1938c0 1.2066 3.3709 2.1938 7.4908 2.1938 4.12 0 7.4909-0.98721 7.4909-2.1938zm-140.01-4.3876c1.6694 0 3.0353-0.82879 3.0353-1.8418 0-1.013-14.206-2.0321-31.569-2.2646-17.363-0.23258-49.386-1.3274-71.163-2.4329-80.943-4.109-184.38-4.5227-185.61-0.7424-0.6098 1.8704 2.2469 2.2497 10.278 1.3648 6.1174-0.67411 38.68-0.1331 72.362 1.2022s90.578 2.9872 126.44 3.6708c35.858 0.6836 65.664 1.7224 66.236 2.3086 0.57179 0.58609 2.3726 0.54129 4.0017-0.09951 1.6292-0.64083 4.328-1.1651 5.9975-1.1651zm124.95-8.9223c-1.8505-3.5442-1.5958-5.7421 1.1658-10.062 4.5275-7.0828 2.7165-9.0477-2.9684-3.2207-3.7219 3.815-4.0373 5.4825-2.1092 11.152 1.2469 3.6663 3.1698 6.666 4.2732 6.666 1.1315 0 0.97388-1.9771-0.36149-4.5347zm-109.08-0.76679c0-1.7092-2.6486-5.1332-5.8857-7.6088-5.4382-4.1589-5.5415-4.5064-1.3588-4.5706 2.4898-0.03822 7.0646 1.9766 10.166 4.4773 6.6869 5.3916 7.629 2.3692 1.1403-3.6583-3.8784-3.6027-7.9116-4.1792-29.241-4.1792-17.886 0-24.992 0.75984-25.643 2.7422-0.66977 2.0386 3.4011 2.7444 15.864 2.7504 12.936 0.00632 18.354 1.001 23.721 4.3553 3.8257 2.3909 6.9558 5.3489 6.9558 6.5732s0.96311 2.226 2.1402 2.226c1.1771 0 2.1402-1.3985 2.1402-3.1077zm69.89-0.27761c0.69706-1.8619 0.6901-3.977-0.01545-4.7002-1.8506-1.8969-7.985 3.8216-6.587 6.1403 1.8267 3.0296 5.205 2.2927 6.6024-1.4401zm44.667-0.83002c-0.85866-2.7731 0.32018-5.7675 3.4455-8.752 2.6129-2.4952 4.1043-5.1992 3.3144-6.0089-2.3833-2.4429-10.024 6.1492-10.024 11.272 0 4.3904 1.5963 7.7039 3.7113 7.7039 0.47171 0 0.27029-1.8969-0.44759-4.2153zm-130.61-3.4211c-6.9976-3.1507-46.378-4.5001-199.58-6.8386-63.874-0.97501-88.285-0.67661-88.285 1.0792 0 1.6508 9.7519 2.4874 30.498 2.6162 16.774 0.10416 35.314 0.48901 41.2 0.85522 5.8857 0.36621 42.965 1.3537 82.399 2.1944 39.434 0.84075 72.1 1.9367 72.59 2.4355 0.49046 0.49878 15.9 0.82633 34.244 0.72792 29.508-0.15835 32.612-0.51219 26.931-3.0699zm-260.72-18.95c-3.7662-2.2451-3.7662-2.4216 0-5.348 3.7016-2.8762 3.6689-3.0297-0.65873-3.096-6.3261-0.09692-11.294 6.1056-7.0802 8.839 1.69 1.0962 4.999 1.9781 7.3532 1.9599 4.0388-0.03124 4.0606-0.16421 0.38574-2.3549zm15.898-6.5637c-2.8153-2.3395-5.6003-3.76-6.1889-3.1567-0.58857 0.60329 1.2333 3.011 4.0486 5.3505s5.6003 3.76 6.1889 3.1567c0.58856-0.6033-1.2333-3.011-4.0486-5.3505zm343.81 5.3128c-2.06-0.55178-5.4309-0.55178-7.4909 0-2.06 0.5518-0.37454 1.0033 3.7454 1.0033s5.8054-0.45149 3.7454-1.0033z"/>
 </g>
</svg>
